<svg width="6005" height="6000" viewBox="0 0 6005 6000" fill="none" xmlns="http://www.w3.org/2000/svg">
<mask id="mask0_85_379" style="mask-type:alpha" maskUnits="userSpaceOnUse" x="0" y="0" width="6000" height="6000">
<rect width="6000" height="6000" fill="#D9D9D9"/>
</mask>
<g mask="url(#mask0_85_379)">
<rect width="6000" height="6000" fill="url(#paint0_linear_85_379)"/>
<g filter="url(#filter0_f_85_379)">
<path d="M36.9197 919.51C-133.354 1085.62 -289.871 1296.88 -312.49 1523.84C-235.498 1559.64 -278.113 1662.78 -260.905 1732.12C-246.454 1790.34 -192.859 1849.37 -153.624 1896.59C-105.937 1953.99 -96.6309 2032.53 -67.3989 2097.43C-43.898 2149.61 -4.79202 2193.49 17.8238 2246.33C86.3161 2406.34 203.907 2424.72 389.125 2453.67L391.801 2454.09C576.956 2483.03 735.78 2546.03 877.069 2650.6C956.326 2709.25 1003.3 2788.15 1076.59 2851.43C1149.95 2914.77 1237.35 2964.87 1312.21 3027.16C1432.95 3127.64 1636.49 3325.47 1819.53 3314.57C2038.83 3301.51 2280.13 3182.54 2478.25 3109.4C2724.99 3018.32 2964.6 2916.07 3190.11 2789.97C3330.29 2711.59 3462.27 2620.7 3588.15 2525.94C3637.55 2488.76 3683.16 2444.48 3700.45 2388.3C3747.83 2234.28 3561.8 2169.9 3433.75 2126C3227.14 2055.17 3032.59 1965.92 2848.22 1858.51C2636.83 1735.34 2398.53 1603.86 2232.61 1434.33C2085.95 1284.47 1996.47 1101.92 1891.72 933.101C1812.69 805.722 1640.09 729.841 1509.72 648.294C1374.66 563.808 1246.88 467.936 1075.59 447.458C645.519 396.044 302.253 660.665 36.9197 919.51Z" fill="url(#paint1_linear_85_379)" fill-opacity="0.95"/>
</g>
<g filter="url(#filter1_f_85_379)">
<path d="M5942.71 2565.41C5509.43 2272.53 5893.86 2085.5 5544.12 1945.22C5306.32 2021.57 4268.01 2039.29 4296.02 2144.11C4311.18 2200.82 4352.5 2248.76 4396.55 2279.53C4493.72 2347.4 4490.36 2475.79 4554.51 2565.41C4606.37 2637.86 5194.86 2911.01 4990.12 3001.77C4587.99 3180.02 3451.45 3720.26 3543 4210.51C3569.92 4354.65 3751.28 5056.66 3874.5 5095.5C4319 5235.6 5473.13 4507.97 5942.71 4496.4C6555.04 4481.3 4989.59 4491.13 5550.99 4210.51C5770.64 4100.72 5766.49 3534.24 5692.5 3381C5503.66 2989.88 6302.48 2808.61 5942.71 2565.41Z" fill="#40A3FF" fill-opacity="0.52"/>
</g>
<path d="M488.2 738.1C530.5 738.1 559.9 756.1 559.9 787.3C559.9 804.4 551.2 823.6 524.5 834.4C550.6 840.4 563.8 857.8 563.8 880.6C563.8 912.7 533.8 936.4 485.8 936.4C458.5 936.4 438.7 931.6 420.4 922V893.5C440.8 903.7 460.3 908.8 486.1 908.8C510.7 908.8 531.1 897.7 531.1 877.9C531.1 858.4 516.4 849.1 486.4 849.1H451.9V823.9H481.3C512.8 823.9 527.5 813.4 527.5 794.5C527.5 773.2 508.6 765.4 483.4 765.4C463.3 765.4 439.6 771.1 425.5 776.2V749.5C441.1 742 463.3 738.1 488.2 738.1ZM604.248 931H570.648L661.248 741.4H670.248L763.248 931H729.348L711.048 892.3H621.648L604.248 931ZM699.048 866.5L665.748 794.8L633.348 866.5H699.048ZM783.07 931V741.4H908.77V768.7H813.37V931H783.07ZM1015.12 908.2C1053.82 908.2 1082.32 880 1082.32 837.4C1082.32 794.8 1053.82 766.3 1015.12 766.3C976.424 766.3 947.924 794.5 947.924 837.1C947.924 879.7 976.424 908.2 1015.12 908.2ZM1015.12 936.4C956.324 936.4 916.424 896.2 915.824 837.1C916.424 778 956.324 738.1 1015.12 738.1C1073.92 738.1 1113.82 778.3 1114.42 837.4C1113.82 896.5 1073.92 936.4 1015.12 936.4ZM1271.38 931V769.6H1202.08V791.5C1202.08 904.6 1180.78 933.4 1142.08 933.4C1137.28 933.4 1131.28 933.1 1126.48 932.5L1128.88 905.5C1159.48 910 1172.68 890.5 1172.68 778V741.4H1301.68V931H1271.38ZM1435.83 908.2C1474.53 908.2 1503.03 880 1503.03 837.4C1503.03 794.8 1474.53 766.3 1435.83 766.3C1397.13 766.3 1368.63 794.5 1368.63 837.1C1368.63 879.7 1397.13 908.2 1435.83 908.2ZM1435.83 936.4C1377.03 936.4 1337.13 896.2 1336.53 837.1C1337.13 778 1377.03 738.1 1435.83 738.1C1494.63 738.1 1534.53 778.3 1535.13 837.4C1534.53 896.5 1494.63 936.4 1435.83 936.4ZM1632.38 765.1C1622.78 765.1 1609.58 765.7 1600.28 766.9V821.8H1634.48C1659.08 821.8 1676.18 812.8 1676.18 792.7C1676.18 774.1 1660.88 765.1 1632.38 765.1ZM1635.98 847H1600.28V905.5C1609.88 906.1 1625.18 906.1 1633.88 906.1C1667.18 906.1 1684.28 897.1 1684.28 875.2C1684.28 855.1 1666.58 847 1635.98 847ZM1569.98 930.7V741.4C1592.18 740.5 1611.68 739.9 1635.08 739.9C1686.08 739.9 1708.88 757.3 1708.88 784.6C1708.88 804.1 1701.38 822.1 1676.48 830.8C1705.28 837.7 1716.38 853.6 1716.38 876.7C1716.38 913.3 1684.58 931.9 1634.48 931.9C1608.38 931.9 1585.28 931.3 1569.98 930.7ZM1839.54 908.2C1878.24 908.2 1906.74 880 1906.74 837.4C1906.74 794.8 1878.24 766.3 1839.54 766.3C1800.84 766.3 1772.34 794.5 1772.34 837.1C1772.34 879.7 1800.84 908.2 1839.54 908.2ZM1839.54 936.4C1780.74 936.4 1740.84 896.2 1740.24 837.1C1740.84 778 1780.74 738.1 1839.54 738.1C1898.34 738.1 1938.24 778.3 1938.84 837.4C1938.24 896.5 1898.34 936.4 1839.54 936.4ZM1973.69 931V741.4H2003.99V823.3H2022.29L2091.89 741.4H2127.59L2049.89 832.3L2137.19 931H2096.09L2024.39 848.2H2003.99V931H1973.69ZM2277.82 931V768.7H2216.32V741.4H2369.62V768.7H2308.12V931H2277.82ZM2392.35 931V741.4H2528.55V769.6H2421.45V821.5H2515.35V850H2421.45V902.8H2529.75V931H2392.35ZM2736.33 810.7L2670.33 926.5L2601.93 810.7L2583.93 931H2551.83L2585.13 741.4H2594.13L2670.33 873.4L2745.93 741.4H2754.93L2789.73 931H2757.63L2736.33 810.7ZM2995.43 931V741.4H3025.73V931H2995.43ZM2895.53 903.7C2923.13 903.7 2940.23 892.3 2940.23 868.9C2940.23 840.4 2915.63 833.8 2890.43 833.8C2876.93 833.8 2869.13 835 2856.53 837.7V903.7H2895.53ZM2826.23 931V741.4H2856.53V810.4C2867.63 808.6 2881.13 807.1 2891.03 807.1C2937.23 807.1 2972.93 823 2972.93 869.2C2972.93 903.1 2949.53 931 2903.33 931H2826.23Z" fill="white"/>
</g>
<line y1="5698" x2="4176" y2="5698" stroke="white" stroke-width="10"/>
<path fill-rule="evenodd" clip-rule="evenodd" d="M6000 5066H4176V5067H6000V5066Z" stroke="white" stroke-width="10"/>
<path fill-rule="evenodd" clip-rule="evenodd" d="M4176 5066V5703V5703V5066V5066Z" stroke="white" stroke-width="10"/>
<mask id="path-9-inside-1_85_379" fill="white">
<path fill-rule="evenodd" clip-rule="evenodd" d="M5057.44 5789.78C5056.25 5793.03 5053.47 5795.42 5050.11 5796.22C4961.16 5817.45 4894.24 5895.46 4889.81 5989.82C4889.55 5995.33 4894.05 5999.82 4899.57 5999.82H5298.19C5303.71 5999.82 5308.21 5995.33 5307.95 5989.82C5305.29 5933.17 5280.11 5882.41 5241.15 5846.3C5238.12 5843.48 5236.97 5839.13 5238.39 5835.24L5339.98 5556.11C5340.93 5553.51 5342.92 5551.42 5345.45 5550.28C5367.58 5540.21 5387.25 5525.65 5403.27 5507.76C5406.09 5504.61 5410.53 5503.37 5414.51 5504.82L5513.43 5540.83C5516.28 5541.86 5518.48 5544.14 5519.56 5546.97C5537.95 5595.44 5582.57 5631 5636.09 5636.32C5640.47 5636.76 5644.5 5634.02 5645.97 5629.87L5662.64 5582.77C5665.34 5575.15 5658.14 5567.24 5650.06 5567.24V5567.24C5611.53 5567.24 5580.29 5536.01 5580.29 5497.47C5580.29 5458.94 5611.53 5427.7 5650.06 5427.7C5666.67 5427.7 5681.93 5433.51 5693.91 5443.2C5700.21 5448.3 5710.81 5446.69 5713.52 5439.04L5730.18 5391.99C5731.65 5387.83 5730.25 5383.17 5726.56 5380.76C5704.59 5366.33 5678.31 5357.93 5650.06 5357.93C5616.52 5357.93 5585.74 5369.77 5561.67 5389.5C5558.82 5391.83 5554.97 5392.6 5551.5 5391.34L5448.34 5353.79C5445.16 5352.63 5442.8 5349.93 5441.93 5346.66C5422.17 5272.02 5354.16 5217 5273.3 5217C5176.97 5217 5098.88 5295.09 5098.88 5391.42C5098.88 5439.98 5118.72 5483.9 5150.73 5515.52C5153.61 5518.37 5154.68 5522.61 5153.29 5526.41L5057.44 5789.78ZM5360.52 5391.42C5360.52 5439.59 5321.47 5478.64 5273.3 5478.64C5225.14 5478.64 5186.09 5439.59 5186.09 5391.42C5186.09 5343.26 5225.14 5304.21 5273.3 5304.21C5321.47 5304.21 5360.52 5343.26 5360.52 5391.42Z"/>
</mask>
<path d="M5150.73 5515.52L5136.68 5529.75L5150.73 5515.52ZM5153.29 5526.41L5172.09 5533.25L5153.29 5526.41ZM5448.34 5353.79L5455.18 5335L5448.34 5353.79ZM5441.93 5346.66L5422.6 5351.78L5441.93 5346.66ZM5561.67 5389.5L5574.35 5404.96L5561.67 5389.5ZM5662.64 5582.77L5643.79 5576.09L5662.64 5582.77ZM5636.09 5636.32L5638.07 5616.42L5636.09 5636.32ZM5645.97 5629.87L5664.82 5636.54L5645.97 5629.87ZM5513.43 5540.83L5506.59 5559.62L5513.43 5540.83ZM5519.56 5546.97L5500.86 5554.07L5519.56 5546.97ZM5403.27 5507.76L5388.37 5494.41L5403.27 5507.76ZM5414.51 5504.82L5407.67 5523.61L5414.51 5504.82ZM5339.98 5556.11L5321.19 5549.27L5339.98 5556.11ZM5345.45 5550.28L5353.73 5568.48L5345.45 5550.28ZM5241.15 5846.3L5254.75 5831.63L5241.15 5846.3ZM5238.39 5835.24L5257.18 5842.08L5238.39 5835.24ZM5730.18 5391.99L5711.32 5385.31L5730.18 5391.99ZM5726.56 5380.76L5737.54 5364.04L5726.56 5380.76ZM5307.95 5989.82L5327.93 5988.88L5307.95 5989.82ZM5693.91 5443.2L5681.33 5458.75L5693.91 5443.2ZM5713.52 5439.04L5694.67 5432.37L5713.52 5439.04ZM5050.11 5796.22L5054.75 5815.67L5050.11 5796.22ZM5057.44 5789.78L5076.23 5796.62L5057.44 5789.78ZM5045.47 5776.77C4948.01 5800.03 4874.69 5885.46 4869.83 5988.88L4909.78 5990.76C4913.8 5905.46 4974.31 5834.87 5054.75 5815.67L5045.47 5776.77ZM4899.57 6019.82H5298.19V5979.82H4899.57V6019.82ZM5327.93 5988.88C5325.01 5926.79 5297.4 5871.17 5254.75 5831.63L5227.56 5860.96C5262.82 5893.65 5285.57 5939.54 5287.98 5990.76L5327.93 5988.88ZM5257.18 5842.08L5358.78 5562.95L5321.19 5549.27L5219.59 5828.4L5257.18 5842.08ZM5353.73 5568.48C5378.41 5557.25 5400.32 5541.03 5418.17 5521.1L5388.37 5494.41C5374.17 5510.27 5356.75 5523.16 5337.17 5532.07L5353.73 5568.48ZM5407.67 5523.61L5506.59 5559.62L5520.27 5522.03L5421.35 5486.03L5407.67 5523.61ZM5500.86 5554.07C5521.88 5609.46 5572.86 5650.13 5634.11 5656.22L5638.07 5616.42C5592.28 5611.87 5554.02 5581.42 5538.25 5539.88L5500.86 5554.07ZM5664.82 5636.54L5681.5 5589.44L5643.79 5576.09L5627.12 5623.19L5664.82 5636.54ZM5650.06 5547.24C5622.57 5547.24 5600.29 5524.96 5600.29 5497.47H5560.29C5560.29 5547.05 5600.48 5587.24 5650.06 5587.24V5547.24ZM5600.29 5497.47C5600.29 5469.99 5622.57 5447.7 5650.06 5447.7V5407.7C5600.48 5407.7 5560.29 5447.9 5560.29 5497.47H5600.29ZM5650.06 5447.7C5661.93 5447.7 5672.78 5451.83 5681.33 5458.75L5706.49 5427.65C5691.08 5415.19 5671.41 5407.7 5650.06 5407.7V5447.7ZM5732.37 5445.72L5749.03 5398.66L5711.32 5385.31L5694.67 5432.37L5732.37 5445.72ZM5737.54 5364.04C5712.41 5347.53 5682.33 5337.93 5650.06 5337.93V5377.93C5674.29 5377.93 5696.78 5385.12 5715.58 5397.47L5737.54 5364.04ZM5650.06 5337.93C5611.73 5337.93 5576.5 5351.48 5548.99 5374.03L5574.35 5404.96C5594.97 5388.06 5621.31 5377.93 5650.06 5377.93V5337.93ZM5558.34 5372.54L5455.18 5335L5441.5 5372.58L5544.66 5410.13L5558.34 5372.54ZM5461.27 5341.54C5439.24 5258.35 5363.46 5197 5273.3 5197V5237C5344.86 5237 5405.1 5285.69 5422.6 5351.78L5461.27 5341.54ZM5273.3 5197C5165.93 5197 5078.88 5284.05 5078.88 5391.42H5118.88C5118.88 5306.14 5188.02 5237 5273.3 5237V5197ZM5078.88 5391.42C5078.88 5445.54 5101.02 5494.53 5136.68 5529.75L5164.79 5501.29C5136.42 5473.27 5118.88 5434.42 5118.88 5391.42H5078.88ZM5134.5 5519.57L5038.64 5782.94L5076.23 5796.62L5172.09 5533.25L5134.5 5519.57ZM5273.3 5498.64C5332.52 5498.64 5380.52 5450.64 5380.52 5391.42H5340.52C5340.52 5428.54 5310.42 5458.64 5273.3 5458.64V5498.64ZM5166.09 5391.42C5166.09 5450.64 5214.09 5498.64 5273.3 5498.64V5458.64C5236.18 5458.64 5206.09 5428.54 5206.09 5391.42H5166.09ZM5273.3 5284.21C5214.09 5284.21 5166.09 5332.21 5166.09 5391.42H5206.09C5206.09 5354.3 5236.18 5324.21 5273.3 5324.21V5284.21ZM5380.52 5391.42C5380.52 5332.21 5332.52 5284.21 5273.3 5284.21V5324.21C5310.42 5324.21 5340.52 5354.3 5340.52 5391.42H5380.52ZM5136.68 5529.75C5134.31 5527.41 5133.06 5523.52 5134.5 5519.57L5172.09 5533.25C5176.29 5521.7 5172.92 5509.32 5164.79 5501.29L5136.68 5529.75ZM5455.18 5335C5458.48 5336.2 5460.55 5338.83 5461.27 5341.54L5422.6 5351.78C5425.05 5361.04 5431.84 5369.07 5441.5 5372.58L5455.18 5335ZM5548.99 5374.03C5551.24 5372.19 5554.73 5371.23 5558.34 5372.54L5544.66 5410.13C5555.2 5413.97 5566.41 5411.47 5574.35 5404.96L5548.99 5374.03ZM5681.5 5589.44C5685.69 5577.6 5681.73 5566.42 5675.67 5559.25C5669.74 5552.22 5660.5 5547.24 5650.06 5547.24V5587.24C5647.7 5587.24 5646.1 5586.22 5645.11 5585.05C5644 5583.73 5642.29 5580.32 5643.79 5576.09L5681.5 5589.44ZM5634.11 5656.22C5648.27 5657.63 5660.49 5648.78 5664.82 5636.54L5627.12 5623.19C5628.51 5619.26 5632.68 5615.88 5638.07 5616.42L5634.11 5656.22ZM5506.59 5559.62C5503.63 5558.54 5501.71 5556.32 5500.86 5554.07L5538.25 5539.88C5535.25 5531.96 5528.93 5525.18 5520.27 5522.03L5506.59 5559.62ZM5418.17 5521.1C5415.85 5523.69 5411.8 5525.12 5407.67 5523.61L5421.35 5486.03C5409.26 5481.63 5396.34 5485.52 5388.37 5494.41L5418.17 5521.1ZM5358.78 5562.95C5357.8 5565.64 5355.85 5567.52 5353.73 5568.48L5337.17 5532.07C5330 5535.33 5324.06 5541.37 5321.19 5549.27L5358.78 5562.95ZM5254.75 5831.63C5257.34 5834.03 5258.64 5838.06 5257.18 5842.08L5219.59 5828.4C5215.3 5840.2 5218.9 5852.93 5227.56 5860.96L5254.75 5831.63ZM5749.03 5398.66C5753.36 5386.44 5749.45 5371.86 5737.54 5364.04L5715.58 5397.47C5711.04 5394.49 5709.94 5389.23 5711.32 5385.31L5749.03 5398.66ZM5298.19 6019.82C5314.51 6019.82 5328.76 6006.41 5327.93 5988.88L5287.98 5990.76C5287.67 5984.26 5292.92 5979.82 5298.19 5979.82V6019.82ZM5681.33 5458.75C5689.45 5465.32 5699.77 5467.27 5708.82 5465.55C5718.06 5463.78 5728.18 5457.57 5732.37 5445.72L5694.67 5432.37C5696.16 5428.16 5699.62 5426.58 5701.31 5426.26C5702.8 5425.97 5704.67 5426.18 5706.49 5427.65L5681.33 5458.75ZM4869.83 5988.88C4869 6006.41 4883.26 6019.82 4899.57 6019.82V5979.82C4904.84 5979.82 4910.09 5984.26 4909.78 5990.76L4869.83 5988.88ZM5054.75 5815.67C5064.35 5813.38 5072.64 5806.47 5076.23 5796.62L5038.64 5782.94C5039.86 5779.58 5042.59 5777.45 5045.47 5776.77L5054.75 5815.67Z" fill="white" mask="url(#path-9-inside-1_85_379)"/>
<path d="M520.5 5372.2H691.2V5401.9H654.9L643.2 5461H612.9L624.6 5401.9H579.9L568.2 5461H537.9L549.6 5401.9H520.5V5372.2ZM700.2 5354.8H529.5V5325.1H564.9L576.3 5271.4H606.6L595.2 5325.1H639.9L651.3 5271.4H681.6L670.2 5325.1H700.2V5354.8ZM784.53 5271.4V5461H744.03V5271.4H784.53ZM798.63 5384.2V5347.6H869.13V5271.4H909.63V5461H869.13V5384.2H798.63ZM995.916 5313.4L1014.82 5353L995.016 5395.9H1049.32L989.316 5271.4H1027.72L1123.72 5461H1079.62L1064.02 5427.7H980.316L965.016 5461H923.016L995.916 5313.4ZM1261.84 5351.8C1251.94 5346.7 1240.24 5343.1 1227.34 5341C1231.24 5337.1 1233.34 5332.3 1233.34 5326.3C1233.34 5309.2 1218.04 5303.8 1197.34 5303.8C1174.24 5303.8 1147.24 5310.7 1137.04 5316.4V5281.3C1152.94 5273.2 1177.54 5268.1 1203.04 5268.1C1246.84 5268.1 1277.44 5289.4 1277.44 5318.5C1277.44 5332.9 1271.14 5344 1261.84 5351.8ZM1162.24 5349.7H1195.84C1266.34 5349.7 1281.34 5384.5 1281.34 5408.5C1281.34 5441.8 1250.14 5466.4 1200.64 5466.4C1171.54 5466.4 1151.44 5460.7 1132.24 5449.9V5412.7C1154.44 5425 1173.04 5430.7 1199.74 5430.7C1220.14 5430.7 1236.94 5422.3 1236.94 5406.1C1236.94 5390.5 1224.94 5383.3 1200.04 5383.3H1162.24V5349.7ZM1368.75 5461V5428.9H1387.65C1411.05 5428.9 1422.75 5422 1422.75 5405.5C1422.75 5389.6 1411.65 5381.8 1388.55 5381.8H1354.65V5461H1314.15V5271.4H1388.85C1437.15 5271.4 1454.85 5294.2 1454.85 5319.1C1454.85 5329 1450.95 5341.6 1443.75 5350C1433.85 5345.5 1418.25 5342.2 1409.85 5341C1412.25 5335.9 1414.35 5330.2 1414.35 5323.6C1414.35 5312.5 1408.35 5303.5 1387.05 5303.5H1354.65V5351.5H1396.65C1436.55 5351.5 1465.05 5370.1 1465.05 5404.9C1465.05 5441.2 1438.95 5461 1393.05 5461H1368.75ZM1546.99 5313.4L1565.89 5353L1546.09 5395.9H1600.39L1540.39 5271.4H1578.79L1674.79 5461H1630.69L1615.09 5427.7H1531.39L1516.09 5461H1474.09L1546.99 5313.4ZM1735.21 5271.4V5461H1694.71V5271.4H1735.21ZM1749.31 5384.2V5347.6H1819.81V5271.4H1860.31V5461H1819.81V5384.2H1749.31ZM1938.2 5436.1L1913 5461H1899.5V5271.4H1938.2V5436.1ZM1952.3 5422.3V5370.4L2053.7 5271.4H2066.3V5461H2027.6V5347.9L1952.3 5422.3ZM2111.3 5461V5271.4H2151.8V5425.6H2255.3V5461H2111.3ZM2165.9 5306.8V5271.4H2254.1V5306.8H2165.9ZM2165.9 5383V5347.6H2241.5V5383H2165.9ZM2415.24 5496.1H2262.54V5461H2415.24V5496.1ZM2492.58 5406.1V5372.2C2497.68 5372.5 2502.48 5372.5 2505.78 5372.5C2529.18 5372.5 2546.88 5363.2 2546.88 5337.7C2546.88 5320.6 2539.38 5306.8 2510.28 5306.8H2478.48V5461H2437.98V5271.4H2512.68C2568.48 5271.4 2589.18 5302 2589.18 5338.6C2589.18 5388.4 2550.78 5406.7 2511.48 5406.7C2505.78 5406.7 2499.18 5406.7 2492.58 5406.1ZM2716.56 5397.4L2697.06 5359.3L2735.76 5271.4H2779.26L2716.56 5397.4ZM2709.36 5412.4L2707.86 5415.4C2691.36 5449.9 2670.06 5464 2644.86 5464C2635.86 5464 2628.06 5462.8 2620.56 5460.4V5425.9C2625.96 5427.7 2631.66 5428.9 2637.06 5428.9C2648.46 5428.9 2659.26 5424.7 2667.96 5414.5L2592.06 5271.4H2636.76L2709.36 5412.4ZM2849.41 5461V5425H2874.31C2895.91 5425 2904.31 5413.9 2904.31 5399.8C2904.31 5379.4 2885.71 5374.6 2866.51 5374.6C2855.41 5374.6 2843.71 5376.1 2835.31 5377.3V5461H2794.81V5271.4H2931.61V5306.8H2835.31V5345.2C2845.21 5344 2856.91 5342.8 2867.71 5342.8C2907.01 5342.8 2946.31 5354.2 2946.31 5401.3C2946.31 5439.7 2919.61 5461 2876.11 5461H2849.41ZM3032.81 5406.1V5372.2C3037.91 5372.5 3042.71 5372.5 3046.01 5372.5C3069.41 5372.5 3087.11 5363.2 3087.11 5337.7C3087.11 5320.6 3079.61 5306.8 3050.51 5306.8H3018.71V5461H2978.21V5271.4H3052.91C3108.71 5271.4 3129.41 5302 3129.41 5338.6C3129.41 5388.4 3091.01 5406.7 3051.71 5406.7C3046.01 5406.7 3039.41 5406.7 3032.81 5406.1ZM3196.79 5436.1L3171.59 5461H3158.09V5271.4H3196.79V5436.1ZM3210.89 5422.3V5370.4L3312.29 5271.4H3324.89V5461H3286.19V5347.9L3210.89 5422.3ZM3411 5271.4V5461H3370.5V5271.4H3411ZM3490.2 5461L3419.1 5362.9L3486.3 5271.4H3533.7L3468.9 5358.7L3543 5461H3490.2ZM3596.7 5436.1L3571.5 5461H3558V5271.4H3596.7V5436.1ZM3610.8 5422.3V5370.4L3712.2 5271.4H3724.8V5461H3686.1V5347.9L3610.8 5422.3Z" fill="white"/>
<defs>
<filter id="filter0_f_85_379" x="-3315" y="-2559" width="10023" height="8874" filterUnits="userSpaceOnUse" color-interpolation-filters="sRGB">
<feFlood flood-opacity="0" result="BackgroundImageFix"/>
<feBlend mode="normal" in="SourceGraphic" in2="BackgroundImageFix" result="shape"/>
<feGaussianBlur stdDeviation="1500" result="effect1_foregroundBlur_85_379"/>
</filter>
<filter id="filter1_f_85_379" x="2037.78" y="378" width="5549.57" height="6235.41" filterUnits="userSpaceOnUse" color-interpolation-filters="sRGB">
<feFlood flood-opacity="0" result="BackgroundImageFix"/>
<feBlend mode="normal" in="SourceGraphic" in2="BackgroundImageFix" result="shape"/>
<feGaussianBlur stdDeviation="750" result="effect1_foregroundBlur_85_379"/>
</filter>
<linearGradient id="paint0_linear_85_379" x1="4767" y1="577.5" x2="3000" y2="6000" gradientUnits="userSpaceOnUse">
<stop stop-color="#364AC4"/>
<stop offset="1" stop-color="#07008C"/>
</linearGradient>
<linearGradient id="paint1_linear_85_379" x1="1696.5" y1="441" x2="1696.5" y2="3315" gradientUnits="userSpaceOnUse">
<stop stop-color="#9CE1FF"/>
<stop offset="1" stop-color="#D2F1FF"/>
</linearGradient>
</defs>
</svg>
