<svg width="603" height="561" viewBox="0 0 603 561" fill="none" xmlns="http://www.w3.org/2000/svg">
<path fill-rule="evenodd" clip-rule="evenodd" d="M120.838 409C119.656 412.246 116.873 414.629 113.521 415.467C51.4268 430.981 4.65983 485.194 0.328069 550.999C-0.0347026 556.51 4.4771 561 9.99995 561H290C295.523 561 300.035 556.515 299.672 551.004C297.122 512.238 279.844 477.494 253.38 452.314C250.379 449.459 249.227 445.119 250.644 441.226L322.363 244.178C323.311 241.573 325.307 239.498 327.819 238.325C342.616 231.417 355.836 221.696 366.791 209.85C369.665 206.742 374.095 205.501 378.073 206.949L445.809 231.603C448.656 232.639 450.852 234.923 451.965 237.74C465.189 271.198 495.939 295.816 532.897 300.275C537.273 300.803 541.299 298.05 542.769 293.895L554.017 262.123C555.949 256.664 550.791 251 545 251C517.386 251 495 228.614 495 201C495 173.386 517.386 151 545 151C554.941 151 564.204 153.901 571.989 158.902C578.813 163.286 589.597 161.612 592.304 153.966L601.713 127.386C603.184 123.231 601.788 118.56 598.054 116.218C582.677 106.575 564.49 101 545 101C521.57 101 500.022 109.058 482.976 122.554C480.087 124.841 476.238 125.619 472.777 124.359L401.881 98.5551C398.701 97.3976 396.35 94.7015 395.444 91.4409C380.781 38.7031 332.41 0 275 0C205.964 0 150 55.9644 150 125C150 159.115 163.667 190.038 185.823 212.593C188.659 215.48 189.731 219.717 188.347 223.519L120.838 409ZM337.5 125C337.5 159.518 309.518 187.5 275 187.5C240.482 187.5 212.5 159.518 212.5 125C212.5 90.4822 240.482 62.5 275 62.5C309.518 62.5 337.5 90.4822 337.5 125Z" fill="white"/>
</svg>
