<svg width="2717" height="2375" viewBox="0 0 2717 2375" fill="none" xmlns="http://www.w3.org/2000/svg">
<rect x="187" y="170" width="2000" height="2000" fill="url(#paint0_linear_4_87)"/>
<g filter="url(#filter0_f_4_87)">
<path d="M199.307 476.503C142.549 531.873 90.3762 602.292 82.8368 677.946C108.501 689.879 94.2955 724.259 100.032 747.372C104.849 766.78 122.714 786.458 135.792 802.198C151.688 821.33 154.79 847.51 164.534 869.144C172.367 886.536 185.403 901.163 192.941 918.776C215.772 972.115 254.969 978.241 316.708 987.89L317.6 988.03C379.319 997.677 432.26 1018.68 479.356 1053.53C505.775 1073.08 521.434 1099.38 545.864 1120.48C570.315 1141.59 599.45 1158.29 624.402 1179.05C664.649 1212.55 732.496 1278.49 793.511 1274.86C866.609 1270.5 947.045 1230.85 1013.08 1206.47C1095.33 1176.11 1175.2 1142.02 1250.37 1099.99C1297.1 1073.86 1341.09 1043.57 1383.05 1011.98C1399.52 999.585 1414.72 984.827 1420.48 966.099C1436.28 914.76 1374.27 893.299 1331.58 878.666C1262.71 855.056 1197.86 825.308 1136.41 789.502C1065.94 748.447 986.509 704.619 931.204 648.109C882.316 598.156 852.49 537.308 817.574 481.034C791.229 438.574 733.695 413.28 690.241 386.098C645.22 357.936 602.627 325.979 545.529 319.153C402.173 302.015 287.751 390.222 199.307 476.503Z" fill="url(#paint1_linear_4_87)" fill-opacity="0.95"/>
</g>
<g filter="url(#filter1_f_4_87)">
<path d="M2167.9 1025.14C2023.48 927.508 2151.62 865.168 2035.04 818.407C1955.77 843.857 1609.67 849.765 1619.01 884.703C1624.06 903.606 1637.83 919.587 1652.52 929.843C1684.91 952.468 1683.79 995.265 1705.17 1025.14C1722.46 1049.29 1918.62 1140.34 1850.37 1170.59C1716.33 1230.01 1337.48 1410.09 1368 1573.5C1376.97 1621.55 1437.43 1855.55 1478.5 1868.5C1626.67 1915.2 2011.38 1672.66 2167.9 1668.8C2372.01 1663.77 1850.2 1667.04 2037.33 1573.5C2110.55 1536.91 2109.16 1348.08 2084.5 1297C2021.55 1166.63 2287.83 1106.2 2167.9 1025.14Z" fill="#40A3FF" fill-opacity="0.52"/>
</g>
<path fill-rule="evenodd" clip-rule="evenodd" d="M929.069 1120.47C927.887 1123.71 925.102 1126.11 921.741 1126.91C830.709 1148.58 762.234 1228.43 757.791 1325C757.537 1330.52 762.038 1335 767.561 1335H1175.37C1180.89 1335 1185.39 1330.52 1185.14 1325C1182.47 1266.97 1156.67 1214.97 1116.75 1178.01C1113.71 1175.19 1112.57 1170.85 1113.98 1166.95L1217.89 881.464C1218.84 878.86 1220.83 876.779 1223.36 875.632C1246.06 865.319 1266.22 850.383 1282.64 832.026C1285.46 828.87 1289.9 827.638 1293.88 829.086L1395.21 865.97C1398.06 867.006 1400.27 869.286 1401.34 872.119C1420.13 921.75 1465.83 958.157 1520.63 963.543C1525.01 963.974 1529.04 961.237 1530.51 957.083L1547.72 908.467C1550.43 900.82 1543.2 892.893 1535.09 892.931C1534.98 892.932 1534.86 892.932 1534.75 892.932C1495.37 892.932 1463.44 861.01 1463.44 821.631C1463.44 782.252 1495.37 750.33 1534.75 750.33C1551.87 750.33 1567.59 756.369 1579.88 766.434C1586.16 771.573 1596.75 769.962 1599.46 762.316L1616.67 713.675C1618.14 709.521 1616.74 704.863 1613.06 702.439C1590.58 687.64 1563.67 679.029 1534.75 679.029C1500.42 679.029 1468.92 691.158 1444.31 711.365C1441.47 713.703 1437.61 714.471 1434.15 713.211L1328.48 674.751C1325.3 673.594 1322.94 670.897 1322.08 667.624C1301.92 591.284 1232.39 535 1149.72 535C1051.27 535 971.465 614.807 971.465 713.253C971.465 762.927 991.783 807.854 1024.56 840.179C1027.44 843.021 1028.51 847.265 1027.12 851.067L929.069 1120.47ZM1238.84 713.253C1238.84 762.476 1198.94 802.38 1149.72 802.38C1100.49 802.38 1060.59 762.476 1060.59 713.253C1060.59 664.03 1100.49 624.127 1149.72 624.127C1198.94 624.127 1238.84 664.03 1238.84 713.253Z" fill="white"/>
<path d="M699.82 1727V1694.9H718.72C742.12 1694.9 753.82 1688 753.82 1671.5C753.82 1655.6 742.72 1647.8 719.62 1647.8H685.72V1727H645.22V1537.4H719.92C768.22 1537.4 785.92 1560.2 785.92 1585.1C785.92 1595 782.02 1607.6 774.82 1616C764.92 1611.5 749.32 1608.2 740.92 1607C743.32 1601.9 745.42 1596.2 745.42 1589.6C745.42 1578.5 739.42 1569.5 718.12 1569.5H685.72V1617.5H727.72C767.62 1617.5 796.12 1636.1 796.12 1670.9C796.12 1707.2 770.02 1727 724.12 1727H699.82ZM885.262 1572.2V1537.4H908.062C956.062 1537.4 977.362 1560.2 977.362 1595.3C977.362 1642.1 940.462 1658.9 898.162 1658.9C890.062 1658.9 881.062 1658.3 871.162 1657.1V1727H830.962V1537.4H871.162V1622.3C879.262 1623.8 889.162 1625.3 898.762 1625.3C917.962 1625.3 936.262 1619.6 936.262 1597.1C936.262 1580 923.362 1572.2 901.162 1572.2H885.262ZM953.962 1658.3L991.462 1727H946.762L915.562 1668.8C930.862 1667.3 943.462 1664 953.962 1658.3ZM1054.45 1626.2C1057.45 1592.3 1081.45 1573.1 1117.15 1573.1C1135.45 1573.1 1152.55 1575.8 1169.95 1585.1V1546.1C1151.05 1538 1133.35 1534.1 1113.85 1534.1C1053.85 1534.1 1013.05 1570.7 1009.75 1626.2H1054.45ZM1054.45 1640.3C1058.35 1674.8 1084.45 1693.4 1114.45 1693.4C1135.45 1693.4 1155.85 1686.8 1171.45 1676.3V1717.7C1151.95 1728.2 1131.25 1732.4 1109.05 1732.4C1052.05 1732.4 1012.75 1693.4 1009.75 1640.3H1054.45ZM1344.64 1572.2V1537.4H1367.44C1415.44 1537.4 1436.74 1560.2 1436.74 1595.3C1436.74 1642.1 1399.84 1658.9 1357.54 1658.9C1349.44 1658.9 1340.44 1658.3 1330.54 1657.1V1727H1290.34V1537.4H1330.54V1622.3C1338.64 1623.8 1348.54 1625.3 1358.14 1625.3C1377.34 1625.3 1395.64 1619.6 1395.64 1597.1C1395.64 1580 1382.74 1572.2 1360.54 1572.2H1344.64ZM1413.34 1658.3L1450.84 1727H1406.14L1374.94 1668.8C1390.24 1667.3 1402.84 1664 1413.34 1658.3ZM1478.42 1727V1537.4H1518.92V1727H1478.42ZM1611.66 1579.4L1630.56 1619L1610.76 1661.9H1665.06L1605.06 1537.4H1643.46L1739.46 1727H1695.36L1679.76 1693.7H1596.06L1580.76 1727H1538.76L1611.66 1579.4Z" fill="white"/>
<defs>
<filter id="filter0_f_4_87" x="-917.163" y="-683" width="3340.16" height="2958" filterUnits="userSpaceOnUse" color-interpolation-filters="sRGB">
<feFlood flood-opacity="0" result="BackgroundImageFix"/>
<feBlend mode="normal" in="SourceGraphic" in2="BackgroundImageFix" result="shape"/>
<feGaussianBlur stdDeviation="500" result="effect1_foregroundBlur_4_87"/>
</filter>
<filter id="filter1_f_4_87" x="866.259" y="318.406" width="1849.86" height="2056.06" filterUnits="userSpaceOnUse" color-interpolation-filters="sRGB">
<feFlood flood-opacity="0" result="BackgroundImageFix"/>
<feBlend mode="normal" in="SourceGraphic" in2="BackgroundImageFix" result="shape"/>
<feGaussianBlur stdDeviation="250" result="effect1_foregroundBlur_4_87"/>
</filter>
<linearGradient id="paint0_linear_4_87" x1="1776" y1="362.5" x2="1187" y2="2170" gradientUnits="userSpaceOnUse">
<stop stop-color="#364AC4"/>
<stop offset="1" stop-color="#07008C"/>
</linearGradient>
<linearGradient id="paint1_linear_4_87" x1="752.5" y1="317" x2="752.5" y2="1275" gradientUnits="userSpaceOnUse">
<stop stop-color="#9CE1FF"/>
<stop offset="1" stop-color="#D2F1FF"/>
</linearGradient>
</defs>
</svg>
