<svg width="2000" height="2000" viewBox="0 0 2000 2000" fill="none" xmlns="http://www.w3.org/2000/svg">
<path fill-rule="evenodd" clip-rule="evenodd" d="M736.069 909.468C734.888 912.715 732.103 915.106 728.742 915.906C637.709 937.577 569.235 1017.43 564.791 1114C564.537 1119.52 569.039 1124 574.561 1124H982.369C987.892 1124 992.393 1119.52 992.139 1114C989.468 1055.97 963.672 1003.97 923.752 967.006C920.712 964.192 919.567 959.845 920.984 955.953L1024.89 670.464C1025.84 667.86 1027.83 665.779 1030.36 664.632C1053.06 654.319 1073.22 639.383 1089.64 621.026C1092.46 617.87 1096.9 616.638 1100.88 618.086L1202.21 654.97C1205.06 656.006 1207.27 658.286 1208.34 661.119C1227.13 710.75 1272.83 747.157 1327.63 752.543C1332.01 752.974 1336.04 750.237 1337.51 746.083L1354.72 697.467C1357.43 689.82 1350.2 681.893 1342.09 681.931C1341.98 681.932 1341.86 681.932 1341.75 681.932C1302.37 681.932 1270.44 650.01 1270.44 610.631C1270.44 571.252 1302.37 539.33 1341.75 539.33C1358.87 539.33 1374.59 545.369 1386.88 555.434C1393.16 560.573 1403.75 558.962 1406.46 551.316L1423.67 502.675C1425.14 498.521 1423.74 493.863 1420.06 491.439C1397.58 476.64 1370.67 468.029 1341.75 468.029C1307.42 468.029 1275.92 480.158 1251.31 500.365C1248.47 502.703 1244.61 503.471 1241.15 502.211L1135.48 463.751C1132.3 462.594 1129.94 459.897 1129.08 456.624C1108.92 380.284 1039.39 324 956.718 324C858.272 324 778.465 403.807 778.465 502.253C778.465 551.927 798.784 596.854 831.563 629.179C834.444 632.021 835.507 636.265 834.123 640.067L736.069 909.468ZM1045.84 502.253C1045.84 551.476 1005.94 591.38 956.718 591.38C907.495 591.38 867.592 551.476 867.592 502.253C867.592 453.03 907.495 413.127 956.718 413.127C1005.94 413.127 1045.84 453.03 1045.84 502.253Z" fill="#272727"/>
<path d="M535.4 1448V1415.9H554.3C577.7 1415.9 589.4 1409 589.4 1392.5C589.4 1376.6 578.3 1368.8 555.2 1368.8H521.3V1448H480.8V1258.4H555.5C603.8 1258.4 621.5 1281.2 621.5 1306.1C621.5 1316 617.6 1328.6 610.4 1337C600.5 1332.5 584.9 1329.2 576.5 1328C578.9 1322.9 581 1317.2 581 1310.6C581 1299.5 575 1290.5 553.7 1290.5H521.3V1338.5H563.3C603.2 1338.5 631.7 1357.1 631.7 1391.9C631.7 1428.2 605.6 1448 559.7 1448H535.4ZM720.842 1293.2V1258.4H743.642C791.642 1258.4 812.942 1281.2 812.942 1316.3C812.942 1363.1 776.042 1379.9 733.742 1379.9C725.642 1379.9 716.642 1379.3 706.742 1378.1V1448H666.542V1258.4H706.742V1343.3C714.842 1344.8 724.742 1346.3 734.342 1346.3C753.542 1346.3 771.842 1340.6 771.842 1318.1C771.842 1301 758.942 1293.2 736.742 1293.2H720.842ZM789.542 1379.3L827.042 1448H782.342L751.142 1389.8C766.442 1388.3 779.042 1385 789.542 1379.3ZM890.028 1347.2C893.028 1313.3 917.028 1294.1 952.728 1294.1C971.028 1294.1 988.128 1296.8 1005.53 1306.1V1267.1C986.628 1259 968.928 1255.1 949.428 1255.1C889.428 1255.1 848.628 1291.7 845.328 1347.2H890.028ZM890.028 1361.3C893.928 1395.8 920.028 1414.4 950.028 1414.4C971.028 1414.4 991.428 1407.8 1007.03 1397.3V1438.7C987.528 1449.2 966.828 1453.4 944.628 1453.4C887.628 1453.4 848.328 1414.4 845.328 1361.3H890.028ZM1180.22 1293.2V1258.4H1203.02C1251.02 1258.4 1272.32 1281.2 1272.32 1316.3C1272.32 1363.1 1235.42 1379.9 1193.12 1379.9C1185.02 1379.9 1176.02 1379.3 1166.12 1378.1V1448H1125.92V1258.4H1166.12V1343.3C1174.22 1344.8 1184.12 1346.3 1193.72 1346.3C1212.92 1346.3 1231.22 1340.6 1231.22 1318.1C1231.22 1301 1218.32 1293.2 1196.12 1293.2H1180.22ZM1248.92 1379.3L1286.42 1448H1241.72L1210.52 1389.8C1225.82 1388.3 1238.42 1385 1248.92 1379.3ZM1314 1448V1258.4H1354.5V1448H1314ZM1447.24 1300.4L1466.14 1340L1446.34 1382.9H1500.64L1440.64 1258.4H1479.04L1575.04 1448H1530.94L1515.34 1414.7H1431.64L1416.34 1448H1374.34L1447.24 1300.4Z" fill="#272727"/>
<circle cx="1000" cy="1000" r="995" stroke="#272727" stroke-width="10"/>
</svg>
