<svg width="2000" height="2000" viewBox="0 0 2000 2000" fill="none" xmlns="http://www.w3.org/2000/svg">
<mask id="mask0_43_226" style="mask-type:alpha" maskUnits="userSpaceOnUse" x="0" y="0" width="2000" height="2000">
<circle cx="1000" cy="1000" r="1000" fill="#D9D9D9"/>
</mask>
<g mask="url(#mask0_43_226)">
<path fill-rule="evenodd" clip-rule="evenodd" d="M0 0H2000V2000H0V0ZM743.069 933.468C741.888 936.715 739.103 939.106 735.741 939.906C644.709 961.577 576.234 1041.43 571.791 1138C571.537 1143.52 576.038 1148 581.561 1148H989.369C994.892 1148 999.393 1143.52 999.139 1138C996.468 1079.97 970.672 1027.97 930.752 991.006C927.712 988.192 926.567 983.845 927.984 979.953L1031.89 694.464C1032.84 691.86 1034.83 689.779 1037.36 688.632C1060.06 678.319 1080.22 663.383 1096.64 645.026C1099.46 641.87 1103.9 640.638 1107.88 642.086L1209.21 678.97C1212.06 680.006 1214.27 682.286 1215.34 685.119C1234.13 734.75 1279.83 771.157 1334.63 776.543C1339.01 776.974 1343.04 774.237 1344.51 770.083L1361.72 721.467C1364.43 713.82 1357.2 705.893 1349.09 705.931L1348.88 705.932L1348.75 705.932C1309.37 705.932 1277.44 674.01 1277.44 634.631C1277.44 595.252 1309.37 563.33 1348.75 563.33C1365.87 563.33 1381.59 569.369 1393.88 579.434C1400.16 584.573 1410.75 582.962 1413.46 575.316L1430.67 526.675C1432.14 522.521 1430.74 517.863 1427.06 515.439C1404.58 500.64 1377.67 492.029 1348.75 492.029C1314.42 492.029 1282.92 504.158 1258.31 524.365C1255.47 526.703 1251.61 527.471 1248.15 526.211L1142.48 487.751C1139.3 486.594 1136.94 483.897 1136.08 480.625C1115.92 404.284 1046.39 348 963.718 348C865.272 348 785.465 427.807 785.465 526.253C785.465 575.927 805.783 620.854 838.562 653.179C841.444 656.021 842.507 660.265 841.123 664.067L743.069 933.468ZM1052.84 526.253C1052.84 575.476 1012.94 615.38 963.718 615.38C914.495 615.38 874.592 575.476 874.592 526.253C874.592 477.03 914.495 437.127 963.718 437.127C1012.94 437.127 1052.84 477.03 1052.84 526.253ZM529.82 1451.9V1484H554.12C600.02 1484 626.12 1464.2 626.12 1427.9C626.12 1393.1 597.62 1374.5 557.72 1374.5H515.72V1326.5H548.12C569.42 1326.5 575.42 1335.5 575.42 1346.6C575.42 1353.2 573.32 1358.9 570.92 1364C579.32 1365.2 594.92 1368.5 604.82 1373C612.02 1364.6 615.92 1352 615.92 1342.1C615.92 1317.2 598.22 1294.4 549.92 1294.4H475.22V1484H515.72V1404.8H549.62C572.72 1404.8 583.82 1412.6 583.82 1428.5C583.82 1445 572.12 1451.9 548.72 1451.9H529.82ZM715.262 1294.4V1329.2H731.162C753.362 1329.2 766.262 1337 766.262 1354.1C766.262 1376.6 747.962 1382.3 728.762 1382.3C719.162 1382.3 709.262 1380.8 701.162 1379.3V1294.4H660.962V1484H701.162V1414.1C711.062 1415.3 720.062 1415.9 728.162 1415.9C770.462 1415.9 807.362 1399.1 807.362 1352.3C807.362 1317.2 786.062 1294.4 738.062 1294.4H715.262ZM821.462 1484L783.962 1415.3C773.462 1421 760.862 1424.3 745.562 1425.8L776.762 1484H821.462ZM947.148 1330.1C911.448 1330.1 887.448 1349.3 884.448 1383.2H839.748C843.048 1327.7 883.848 1291.1 943.848 1291.1C963.348 1291.1 981.048 1295 999.948 1303.1V1342.1C982.548 1332.8 965.448 1330.1 947.148 1330.1ZM944.448 1450.4C914.448 1450.4 888.348 1431.8 884.448 1397.3H839.748C842.748 1450.4 882.048 1489.4 939.048 1489.4C961.248 1489.4 981.948 1485.2 1001.45 1474.7V1433.3C985.848 1443.8 965.448 1450.4 944.448 1450.4ZM1174.64 1294.4V1329.2H1190.54C1212.74 1329.2 1225.64 1337 1225.64 1354.1C1225.64 1376.6 1207.34 1382.3 1188.14 1382.3C1178.54 1382.3 1168.64 1380.8 1160.54 1379.3V1294.4H1120.34V1484H1160.54V1414.1C1170.44 1415.3 1179.44 1415.9 1187.54 1415.9C1229.84 1415.9 1266.74 1399.1 1266.74 1352.3C1266.74 1317.2 1245.44 1294.4 1197.44 1294.4H1174.64ZM1280.84 1484L1243.34 1415.3C1232.84 1421 1220.24 1424.3 1204.94 1425.8L1236.14 1484H1280.84ZM1308.42 1294.4V1484H1348.92V1294.4H1308.42ZM1460.56 1376L1441.66 1336.4L1368.76 1484H1410.76L1426.06 1450.7H1509.76L1525.36 1484H1569.46L1473.46 1294.4H1435.06L1495.06 1418.9H1440.76L1460.56 1376Z" fill="white"/>
</g>
</svg>
