<svg width="2000" height="2000" viewBox="0 0 2000 2000" fill="none" xmlns="http://www.w3.org/2000/svg">
<mask id="mask0_4_114" style="mask-type:alpha" maskUnits="userSpaceOnUse" x="0" y="0" width="2000" height="2000">
<circle cx="1000" cy="1000" r="1000" fill="#D9D9D9"/>
</mask>
<g mask="url(#mask0_4_114)">
<rect width="2000" height="2000" fill="url(#paint0_linear_4_114)"/>
<g filter="url(#filter0_f_4_114)">
<path d="M12.3066 306.503C-44.4513 361.873 -96.6238 432.292 -104.163 507.946C-78.4994 519.879 -92.7045 554.259 -86.9682 577.372C-82.1514 596.78 -64.2862 616.458 -51.2081 632.198C-35.3124 651.33 -32.2103 677.51 -22.4663 699.144C-14.6327 716.536 -1.59733 731.163 5.94127 748.776C28.772 802.115 67.9691 808.241 129.708 817.89L130.6 818.03C192.319 827.677 245.26 848.678 292.356 883.532C318.775 903.084 334.434 929.385 358.864 950.477C383.315 971.589 412.45 988.29 437.402 1009.05C477.649 1042.55 545.496 1108.49 606.511 1104.86C679.609 1100.5 760.045 1060.85 826.085 1036.47C908.331 1006.11 988.2 972.023 1063.37 929.99C1110.1 903.862 1154.09 873.566 1196.05 841.98C1212.52 829.585 1227.72 814.827 1233.48 796.099C1249.28 744.76 1187.27 723.299 1144.58 708.666C1075.71 685.056 1010.86 655.308 949.407 619.502C878.943 578.447 799.509 534.619 744.204 478.109C695.316 428.156 665.49 367.308 630.574 311.034C604.229 268.574 546.695 243.28 503.241 216.098C458.22 187.936 415.627 155.979 358.529 149.153C215.173 132.015 100.751 220.222 12.3066 306.503Z" fill="url(#paint1_linear_4_114)" fill-opacity="0.95"/>
</g>
<g filter="url(#filter1_f_4_114)">
<path d="M1980.9 855.138C1836.48 757.508 1964.62 695.168 1848.04 648.407C1768.77 673.857 1422.67 679.765 1432.01 714.703C1437.06 733.606 1450.83 749.587 1465.52 759.843C1497.91 782.468 1496.79 825.265 1518.17 855.138C1535.46 879.286 1731.62 970.337 1663.37 1000.59C1529.33 1060.01 1150.48 1240.09 1181 1403.5C1189.97 1451.55 1250.43 1685.55 1291.5 1698.5C1439.67 1745.2 1824.38 1502.66 1980.9 1498.8C2185.01 1493.77 1663.2 1497.04 1850.33 1403.5C1923.55 1366.91 1922.16 1178.08 1897.5 1127C1834.55 996.628 2100.83 936.203 1980.9 855.138Z" fill="#40A3FF" fill-opacity="0.52"/>
</g>
<path fill-rule="evenodd" clip-rule="evenodd" d="M743.069 933.468C741.887 936.715 739.102 939.106 735.741 939.906C644.709 961.577 576.234 1041.43 571.791 1138C571.537 1143.52 576.038 1148 581.561 1148H989.369C994.892 1148 999.393 1143.52 999.139 1138C996.468 1079.97 970.672 1027.97 930.752 991.006C927.712 988.192 926.567 983.845 927.983 979.953L1031.89 694.464C1032.84 691.86 1034.83 689.779 1037.36 688.632C1060.06 678.319 1080.22 663.383 1096.64 645.026C1099.46 641.87 1103.9 640.638 1107.88 642.086L1209.21 678.97C1212.06 680.006 1214.27 682.286 1215.34 685.119C1234.13 734.75 1279.83 771.157 1334.63 776.543C1339.01 776.974 1343.04 774.237 1344.51 770.083L1361.72 721.467C1364.43 713.82 1357.2 705.893 1349.09 705.931C1348.98 705.932 1348.86 705.932 1348.75 705.932C1309.37 705.932 1277.44 674.01 1277.44 634.631C1277.44 595.252 1309.37 563.33 1348.75 563.33C1365.87 563.33 1381.59 569.369 1393.88 579.434C1400.16 584.573 1410.75 582.962 1413.46 575.316L1430.67 526.675C1432.14 522.521 1430.74 517.863 1427.06 515.439C1404.58 500.64 1377.67 492.029 1348.75 492.029C1314.42 492.029 1282.92 504.158 1258.31 524.365C1255.47 526.703 1251.61 527.471 1248.15 526.211L1142.48 487.751C1139.3 486.594 1136.94 483.897 1136.08 480.624C1115.92 404.284 1046.39 348 963.718 348C865.272 348 785.465 427.807 785.465 526.253C785.465 575.927 805.783 620.854 838.562 653.179C841.444 656.021 842.507 660.265 841.123 664.067L743.069 933.468ZM1052.84 526.253C1052.84 575.476 1012.94 615.38 963.718 615.38C914.495 615.38 874.592 575.476 874.592 526.253C874.592 477.03 914.495 437.127 963.718 437.127C1012.94 437.127 1052.84 477.03 1052.84 526.253Z" fill="white"/>
<path d="M529.82 1484V1451.9H548.72C572.12 1451.9 583.82 1445 583.82 1428.5C583.82 1412.6 572.72 1404.8 549.62 1404.8H515.72V1484H475.22V1294.4H549.92C598.22 1294.4 615.92 1317.2 615.92 1342.1C615.92 1352 612.02 1364.6 604.82 1373C594.92 1368.5 579.32 1365.2 570.92 1364C573.32 1358.9 575.42 1353.2 575.42 1346.6C575.42 1335.5 569.42 1326.5 548.12 1326.5H515.72V1374.5H557.72C597.62 1374.5 626.12 1393.1 626.12 1427.9C626.12 1464.2 600.02 1484 554.12 1484H529.82ZM715.262 1329.2V1294.4H738.062C786.062 1294.4 807.362 1317.2 807.362 1352.3C807.362 1399.1 770.462 1415.9 728.162 1415.9C720.062 1415.9 711.062 1415.3 701.162 1414.1V1484H660.962V1294.4H701.162V1379.3C709.262 1380.8 719.162 1382.3 728.762 1382.3C747.962 1382.3 766.262 1376.6 766.262 1354.1C766.262 1337 753.362 1329.2 731.162 1329.2H715.262ZM783.962 1415.3L821.462 1484H776.762L745.562 1425.8C760.862 1424.3 773.462 1421 783.962 1415.3ZM884.448 1383.2C887.448 1349.3 911.448 1330.1 947.148 1330.1C965.448 1330.1 982.548 1332.8 999.948 1342.1V1303.1C981.048 1295 963.348 1291.1 943.848 1291.1C883.848 1291.1 843.048 1327.7 839.748 1383.2H884.448ZM884.448 1397.3C888.348 1431.8 914.448 1450.4 944.448 1450.4C965.448 1450.4 985.848 1443.8 1001.45 1433.3V1474.7C981.948 1485.2 961.248 1489.4 939.048 1489.4C882.048 1489.4 842.748 1450.4 839.748 1397.3H884.448ZM1174.64 1329.2V1294.4H1197.44C1245.44 1294.4 1266.74 1317.2 1266.74 1352.3C1266.74 1399.1 1229.84 1415.9 1187.54 1415.9C1179.44 1415.9 1170.44 1415.3 1160.54 1414.1V1484H1120.34V1294.4H1160.54V1379.3C1168.64 1380.8 1178.54 1382.3 1188.14 1382.3C1207.34 1382.3 1225.64 1376.6 1225.64 1354.1C1225.64 1337 1212.74 1329.2 1190.54 1329.2H1174.64ZM1243.34 1415.3L1280.84 1484H1236.14L1204.94 1425.8C1220.24 1424.3 1232.84 1421 1243.34 1415.3ZM1308.42 1484V1294.4H1348.92V1484H1308.42ZM1441.66 1336.4L1460.56 1376L1440.76 1418.9H1495.06L1435.06 1294.4H1473.46L1569.46 1484H1525.36L1509.76 1450.7H1426.06L1410.76 1484H1368.76L1441.66 1336.4Z" fill="white"/>
</g>
<defs>
<filter id="filter0_f_4_114" x="-1104.16" y="-853" width="3340.16" height="2958" filterUnits="userSpaceOnUse" color-interpolation-filters="sRGB">
<feFlood flood-opacity="0" result="BackgroundImageFix"/>
<feBlend mode="normal" in="SourceGraphic" in2="BackgroundImageFix" result="shape"/>
<feGaussianBlur stdDeviation="500" result="effect1_foregroundBlur_4_114"/>
</filter>
<filter id="filter1_f_4_114" x="679.259" y="148.406" width="1849.86" height="2056.06" filterUnits="userSpaceOnUse" color-interpolation-filters="sRGB">
<feFlood flood-opacity="0" result="BackgroundImageFix"/>
<feBlend mode="normal" in="SourceGraphic" in2="BackgroundImageFix" result="shape"/>
<feGaussianBlur stdDeviation="250" result="effect1_foregroundBlur_4_114"/>
</filter>
<linearGradient id="paint0_linear_4_114" x1="1589" y1="192.5" x2="1000" y2="2000" gradientUnits="userSpaceOnUse">
<stop stop-color="#364AC4"/>
<stop offset="1" stop-color="#07008C"/>
</linearGradient>
<linearGradient id="paint1_linear_4_114" x1="565.5" y1="147" x2="565.5" y2="1105" gradientUnits="userSpaceOnUse">
<stop stop-color="#9CE1FF"/>
<stop offset="1" stop-color="#D2F1FF"/>
</linearGradient>
</defs>
</svg>
