<svg width="1262" height="396" viewBox="0 0 1262 396" fill="none" xmlns="http://www.w3.org/2000/svg">
<path d="M77.4 254V221.9H96.3C119.7 221.9 131.4 215 131.4 198.5C131.4 182.6 120.3 174.8 97.2 174.8H63.3V254H22.8V64.4H97.5C145.8 64.4 163.5 87.2 163.5 112.1C163.5 122 159.6 134.6 152.4 143C142.5 138.5 126.9 135.2 118.5 134C120.9 128.9 123 123.2 123 116.6C123 105.5 117 96.5 95.7 96.5H63.3V144.5H105.3C145.2 144.5 173.7 163.1 173.7 197.9C173.7 234.2 147.6 254 101.7 254H77.4ZM262.842 99.2V64.4H285.642C333.642 64.4 354.942 87.2 354.942 122.3C354.942 169.1 318.042 185.9 275.742 185.9C267.642 185.9 258.642 185.3 248.742 184.1V254H208.542V64.4H248.742V149.3C256.842 150.8 266.742 152.3 276.342 152.3C295.542 152.3 313.842 146.6 313.842 124.1C313.842 107 300.942 99.2 278.742 99.2H262.842ZM331.542 185.3L369.042 254H324.342L293.142 195.8C308.442 194.3 321.042 191 331.542 185.3ZM432.028 153.2C435.028 119.3 459.028 100.1 494.728 100.1C513.028 100.1 530.128 102.8 547.528 112.1V73.1C528.628 65 510.928 61.1 491.428 61.1C431.428 61.1 390.628 97.7 387.328 153.2H432.028ZM432.028 167.3C435.928 201.8 462.028 220.4 492.028 220.4C513.028 220.4 533.428 213.8 549.028 203.3V244.7C529.528 255.2 508.828 259.4 486.628 259.4C429.628 259.4 390.328 220.4 387.328 167.3H432.028ZM722.217 99.2V64.4H745.017C793.017 64.4 814.317 87.2 814.317 122.3C814.317 169.1 777.417 185.9 735.117 185.9C727.017 185.9 718.017 185.3 708.117 184.1V254H667.917V64.4H708.117V149.3C716.217 150.8 726.117 152.3 735.717 152.3C754.917 152.3 773.217 146.6 773.217 124.1C773.217 107 760.317 99.2 738.117 99.2H722.217ZM790.917 185.3L828.417 254H783.717L752.517 195.8C767.817 194.3 780.417 191 790.917 185.3ZM856.003 254V64.4H896.503V254H856.003ZM989.236 106.4L1008.14 146L988.336 188.9H1042.64L982.636 64.4H1021.04L1117.04 254H1072.94L1057.34 220.7H973.636L958.336 254H916.336L989.236 106.4Z" fill="white"/>
</svg>
