<svg width="2051" height="1883" viewBox="0 0 2051 1883" fill="none" xmlns="http://www.w3.org/2000/svg">
<path d="M103.2 339V296.2H128.4C159.6 296.2 175.2 287 175.2 265C175.2 243.8 160.4 233.4 129.6 233.4H84.4V339H30.4V86.2H130C194.4 86.2 218 116.6 218 149.8C218 163 212.8 179.8 203.2 191C190 185 169.2 180.6 158 179C161.2 172.2 164 164.6 164 155.8C164 141 156 129 127.6 129H84.4V193H140.4C193.6 193 231.6 217.8 231.6 264.2C231.6 312.6 196.8 339 135.6 339H103.2ZM350.456 132.6V86.2H380.856C444.856 86.2 473.256 116.6 473.256 163.4C473.256 225.8 424.056 248.2 367.656 248.2C356.856 248.2 344.856 247.4 331.656 245.8V339H278.056V86.2H331.656V199.4C342.456 201.4 355.656 203.4 368.456 203.4C394.056 203.4 418.456 195.8 418.456 165.8C418.456 143 401.256 132.6 371.656 132.6H350.456ZM442.056 247.4L492.056 339H432.456L390.856 261.4C411.256 259.4 428.056 255 442.056 247.4ZM576.038 204.6C580.038 159.4 612.038 133.8 659.638 133.8C684.038 133.8 706.838 137.4 730.038 149.8V97.8C704.838 87 681.238 81.8 655.238 81.8C575.238 81.8 520.838 130.6 516.438 204.6H576.038ZM576.038 223.4C581.238 269.4 616.037 294.2 656.038 294.2C684.038 294.2 711.238 285.4 732.038 271.4V326.6C706.038 340.6 678.438 346.2 648.838 346.2C572.838 346.2 520.438 294.2 516.438 223.4H576.038ZM962.956 132.6V86.2H993.356C1057.36 86.2 1085.76 116.6 1085.76 163.4C1085.76 225.8 1036.56 248.2 980.156 248.2C969.356 248.2 957.356 247.4 944.156 245.8V339H890.556V86.2H944.156V199.4C954.956 201.4 968.156 203.4 980.956 203.4C1006.56 203.4 1030.96 195.8 1030.96 165.8C1030.96 143 1013.76 132.6 984.156 132.6H962.956ZM1054.56 247.4L1104.56 339H1044.96L1003.36 261.4C1023.76 259.4 1040.56 255 1054.56 247.4ZM1141.34 339V86.2H1195.34V339H1141.34ZM1318.98 142.2L1344.18 195L1317.78 252.2H1390.18L1310.18 86.2H1361.38L1489.38 339H1430.58L1409.78 294.6H1298.18L1277.78 339H1221.78L1318.98 142.2ZM99.4 514.45C88.2 514.45 72.8 515.15 61.95 516.55V580.6H101.85C130.55 580.6 150.5 570.1 150.5 546.65C150.5 524.95 132.65 514.45 99.4 514.45ZM103.6 610H61.95V678.25C73.15 678.95 91 678.95 101.15 678.95C140 678.95 159.95 668.45 159.95 642.9C159.95 619.45 139.3 610 103.6 610ZM26.6 707.65V486.8C52.5 485.75 75.25 485.05 102.55 485.05C162.05 485.05 188.65 505.35 188.65 537.2C188.65 559.95 179.9 580.95 150.85 591.1C184.45 599.15 197.4 617.7 197.4 644.65C197.4 687.35 160.3 709.05 101.85 709.05C71.4 709.05 44.45 708.35 26.6 707.65ZM237.83 708V486.8H325.68C378.88 486.8 403.03 512.35 403.03 552.25C403.03 576.75 393.23 600.55 365.93 615.6C382.03 644.65 399.88 678.25 416.33 708H377.83L333.38 624C327.78 624.35 322.53 624.7 316.93 624.7C302.58 624.7 288.23 623.3 273.18 620.85V708H237.83ZM273.18 519V590.4C286.13 592.85 301.53 594.25 314.13 594.25C341.43 594.25 367.33 586.2 367.33 554.7C367.33 529.85 349.13 519 317.28 519H273.18ZM620.227 666V699.6C598.527 710.1 575.427 714.3 551.277 714.3C483.727 714.3 437.527 664.95 437.527 599.15C437.527 529.15 485.477 482.95 557.227 482.95C578.227 482.95 597.827 486.45 618.477 495.2V527.05C599.577 519.35 579.627 516.55 559.677 516.55C508.927 516.55 475.677 546.65 475.677 599.15C477.077 652 512.427 680.7 556.527 680.7C577.877 680.7 602.727 674.4 620.227 666ZM758.729 708V486.8H846.579C899.779 486.8 923.929 512.35 923.929 552.25C923.929 576.75 914.129 600.55 886.829 615.6C902.929 644.65 920.779 678.25 937.229 708H898.729L854.279 624C848.679 624.35 843.429 624.7 837.829 624.7C823.479 624.7 809.129 623.3 794.079 620.85V708H758.729ZM794.079 519V590.4C807.029 592.85 822.429 594.25 835.029 594.25C862.329 594.25 888.229 586.2 888.229 554.7C888.229 529.85 870.029 519 838.179 519H794.079ZM969.276 708V486.8H1004.63V708H969.276ZM1066.9 708H1027.7L1133.4 486.8H1143.9L1252.4 708H1212.85L1191.5 662.85H1087.2L1066.9 708ZM1177.5 632.75L1138.65 549.1L1100.85 632.75H1177.5ZM22.8 1023.4V834.4C44.1 833.5 67.5 832.9 90 832.9C142.8 832.9 166.5 851.5 166.5 880C166.5 900.1 156.6 915.1 138.6 923.2C160.5 929.2 173.7 943.6 173.7 967.9C173.7 1005.7 139.5 1024.9 87.9 1024.9C59.7 1024.9 37.8 1024.3 22.8 1023.4ZM91.2 943H63.3V991.3C72.3 991.9 81 992.5 89.4 992.5C117.3 992.5 131.4 984.4 131.4 966.4C131.4 950.2 116.7 943 91.2 943ZM87.9 865.3C78.6 865.3 70.5 865.6 63.3 865.9V912.1H90C109.8 912.1 123.9 904 123.9 887.5C123.9 872.8 110.4 865.3 87.9 865.3ZM248.742 954.1V1024H208.542V834.4H285.642C333.642 834.4 354.942 857.2 354.942 892.3C354.942 913.3 347.442 933.7 325.842 945.4L369.042 1024H324.342L287.742 955.6C283.842 955.9 279.942 955.9 275.742 955.9C267.642 955.9 258.642 955.3 248.742 954.1ZM248.742 869.2V919.3C256.842 920.8 266.742 922.3 276.342 922.3C295.542 922.3 313.842 916.6 313.842 894.1C313.842 877 300.942 869.2 278.742 869.2H248.742ZM549.028 973.3V1014.7C529.528 1025.2 508.828 1029.4 486.628 1029.4C427.528 1029.4 387.328 986.8 387.328 930.7C387.328 871 429.028 831.1 491.428 831.1C510.928 831.1 528.628 835 547.528 843.1V882.1C530.128 872.8 513.028 870.1 494.728 870.1C456.628 870.1 431.728 892.3 431.728 930.7C432.928 969.7 460.228 990.4 492.028 990.4C513.028 990.4 533.428 983.8 549.028 973.3ZM708.117 954.1V1024H667.917V834.4H745.017C793.017 834.4 814.317 857.2 814.317 892.3C814.317 913.3 806.817 933.7 785.217 945.4L828.417 1024H783.717L747.117 955.6C743.217 955.9 739.317 955.9 735.117 955.9C727.017 955.9 718.017 955.3 708.117 954.1ZM708.117 869.2V919.3C716.217 920.8 726.117 922.3 735.717 922.3C754.917 922.3 773.217 916.6 773.217 894.1C773.217 877 760.317 869.2 738.117 869.2H708.117ZM856.003 1024V834.4H896.503V1024H856.003ZM958.336 1024H916.336L1009.94 834.4H1021.04L1117.04 1024H1072.94L1057.34 990.7H973.636L958.336 1024ZM1042.64 958.9L1015.34 900.4L988.336 958.9H1042.64ZM77.4 1340V1307.9H96.3C119.7 1307.9 131.4 1301 131.4 1284.5C131.4 1268.6 120.3 1260.8 97.2 1260.8H63.3V1340H22.8V1150.4H97.5C145.8 1150.4 163.5 1173.2 163.5 1198.1C163.5 1208 159.6 1220.6 152.4 1229C142.5 1224.5 126.9 1221.2 118.5 1220C120.9 1214.9 123 1209.2 123 1202.6C123 1191.5 117 1182.5 95.7 1182.5H63.3V1230.5H105.3C145.2 1230.5 173.7 1249.1 173.7 1283.9C173.7 1320.2 147.6 1340 101.7 1340H77.4ZM262.842 1185.2V1150.4H285.642C333.642 1150.4 354.942 1173.2 354.942 1208.3C354.942 1255.1 318.042 1271.9 275.742 1271.9C267.642 1271.9 258.642 1271.3 248.742 1270.1V1340H208.542V1150.4H248.742V1235.3C256.842 1236.8 266.742 1238.3 276.342 1238.3C295.542 1238.3 313.842 1232.6 313.842 1210.1C313.842 1193 300.942 1185.2 278.742 1185.2H262.842ZM331.542 1271.3L369.042 1340H324.342L293.142 1281.8C308.442 1280.3 321.042 1277 331.542 1271.3ZM432.028 1239.2C435.028 1205.3 459.028 1186.1 494.728 1186.1C513.028 1186.1 530.128 1188.8 547.528 1198.1V1159.1C528.628 1151 510.928 1147.1 491.428 1147.1C431.428 1147.1 390.628 1183.7 387.328 1239.2H432.028ZM432.028 1253.3C435.928 1287.8 462.028 1306.4 492.028 1306.4C513.028 1306.4 533.428 1299.8 549.028 1289.3V1330.7C529.528 1341.2 508.828 1345.4 486.628 1345.4C429.628 1345.4 390.328 1306.4 387.328 1253.3H432.028ZM722.217 1185.2V1150.4H745.017C793.017 1150.4 814.317 1173.2 814.317 1208.3C814.317 1255.1 777.417 1271.9 735.117 1271.9C727.017 1271.9 718.017 1271.3 708.117 1270.1V1340H667.917V1150.4H708.117V1235.3C716.217 1236.8 726.117 1238.3 735.717 1238.3C754.917 1238.3 773.217 1232.6 773.217 1210.1C773.217 1193 760.317 1185.2 738.117 1185.2H722.217ZM790.917 1271.3L828.417 1340H783.717L752.517 1281.8C767.817 1280.3 780.417 1277 790.917 1271.3ZM856.003 1340V1150.4H896.503V1340H856.003ZM989.236 1192.4L1008.14 1232L988.336 1274.9H1042.64L982.636 1150.4H1021.04L1117.04 1340H1072.94L1057.34 1306.7H973.636L958.336 1340H916.336L989.236 1192.4Z" fill="white"/>
</svg>
